<svg xmlns="http://www.w3.org/2000/svg" width="56" height="56" viewBox="0 0 56 56"><defs><style>.a{fill:#fff;stroke:#707070;opacity:0;}.b{fill:#ff4b4b;}.c{fill:#7d353b;}.d{fill:#bd4043;}.e{stroke:none;}.f{fill:none;}</style></defs><g transform="translate(-108 -2133)"><g class="a" transform="translate(108 2133)"><rect class="e" width="56" height="56"/><rect class="f" x="0.5" y="0.5" width="55" height="55"/></g><g transform="translate(113.89 2149.036)"><path class="b" d="M22.107,14.894l-7.714-4.077L1,3.74a.074.074,0,0,0-.049-.012.593.593,0,0,0-.807.746l6.822,17.4v0l.021.051a2.188,2.188,0,0,0,1.556,1.208c.056.012.1.023.164.037a1.832,1.832,0,0,0,.242.042l.039,0H9l.029,0h.086a119.933,119.933,0,0,0,26,0h0c.1,0,.205,0,.3-.015l.093-.011.012,0,.062-.01c.031,0,.061-.01.092-.016a1.3,1.3,0,0,0,.172-.052,3.291,3.291,0,0,0,.307-.12,2.07,2.07,0,0,0,.218-.127c.089-.056.174-.114.26-.178a1.022,1.022,0,0,0,.089-.072l-.015-.009Z"/><path class="c" d="M43.232,3.74H43.22L29.826,10.816l7.446,11.089L44.077,4.473V4.449a.588.588,0,0,0-.845-.709"/><path class="d" d="M22.821.375a.858.858,0,0,0-1.418,0l-7.01,10.441,7.714,4.077,14.618,7.726a3.6,3.6,0,0,0,.243-.27,3.077,3.077,0,0,0,.3-.444L29.826,10.816Z"/></g></g></svg>